<svg xmlns="http://www.w3.org/2000/svg" width="127.757" height="20.591" viewBox="0 0 127.757 20.591" fill="none">
  <path d="M 110.186 0.217 L 116.634 10.215 L 116.634 3.643 C 116.634 3.064 116.618 2.485 116.587 1.907 C 116.567 1.328 116.489 0.76 116.355 0.202 L 118.385 0.202 C 118.251 0.76 118.168 1.328 118.137 1.907 C 118.117 2.485 118.106 3.064 118.106 3.643 L 118.106 8.773 C 118.106 9.352 118.117 9.936 118.137 10.525 C 118.168 11.103 118.251 11.672 118.385 12.23 L 116.153 12.23 L 109.752 2.31 L 109.752 8.789 C 109.752 9.367 109.762 9.946 109.783 10.525 C 109.814 11.103 109.897 11.672 110.031 12.23 L 108 12.23 C 108.135 11.672 108.212 11.103 108.233 10.525 C 108.264 9.946 108.279 9.367 108.279 8.789 L 108.279 3.658 C 108.279 3.079 108.264 2.501 108.233 1.922 C 108.212 1.343 108.135 0.775 108 0.217 L 110.186 0.217 Z" fill="currentColor" fill-rule="nonzero"></path>
  <path d="M 105.832 11.145 C 105.119 11.61 104.396 11.945 103.662 12.152 C 102.929 12.348 102.159 12.447 101.353 12.447 C 100.433 12.447 99.591 12.292 98.826 11.982 C 98.062 11.661 97.4 11.217 96.842 10.649 C 96.295 10.08 95.866 9.419 95.556 8.665 C 95.256 7.91 95.106 7.094 95.106 6.216 C 95.106 5.337 95.251 4.521 95.54 3.767 C 95.84 3.012 96.259 2.356 96.796 1.798 C 97.344 1.23 97.984 0.79 98.718 0.481 C 99.462 0.16 100.283 0 101.182 0 C 102.205 0 103.037 0.098 103.678 0.294 C 104.319 0.491 104.892 0.785 105.398 1.178 L 105.646 3.426 L 105.6 3.426 C 105.187 2.795 104.629 2.273 103.926 1.86 C 103.234 1.447 102.319 1.24 101.182 1.24 C 100.294 1.24 99.519 1.467 98.857 1.922 C 98.196 2.377 97.685 2.981 97.323 3.735 C 96.961 4.48 96.78 5.306 96.78 6.216 C 96.78 6.898 96.894 7.538 97.121 8.138 C 97.349 8.737 97.674 9.269 98.098 9.734 C 98.522 10.189 99.023 10.55 99.601 10.819 C 100.18 11.077 100.821 11.207 101.523 11.207 C 102.071 11.207 102.588 11.139 103.073 11.005 C 103.559 10.871 103.962 10.7 104.282 10.494 L 104.282 7.099 C 103.817 7.109 103.358 7.13 102.903 7.161 C 102.448 7.192 101.994 7.264 101.539 7.378 L 101.539 5.844 L 105.832 5.844 L 105.832 11.145 Z" fill="currentColor" fill-rule="nonzero"></path>
  <path d="M 93.326 0.217 C 93.191 0.775 93.108 1.343 93.077 1.922 C 93.057 2.501 93.047 3.079 93.047 3.658 L 93.047 8.789 C 93.047 9.367 93.057 9.946 93.077 10.525 C 93.108 11.103 93.191 11.672 93.326 12.23 L 91.217 12.23 C 91.352 11.672 91.429 11.103 91.45 10.525 C 91.481 9.946 91.496 9.367 91.496 8.789 L 91.496 3.658 C 91.496 3.079 91.481 2.501 91.45 1.922 C 91.429 1.343 91.352 0.775 91.217 0.217 L 93.326 0.217 Z" fill="currentColor" fill-rule="nonzero"></path>
  <path d="M 89.078 1.441 L 88.226 3.116 L 88.179 3.116 C 88.107 2.826 87.962 2.537 87.745 2.247 C 87.538 1.958 87.259 1.72 86.908 1.534 C 86.567 1.338 86.143 1.24 85.637 1.24 C 84.986 1.24 84.449 1.405 84.025 1.736 C 83.612 2.067 83.405 2.506 83.405 3.054 C 83.405 3.477 83.545 3.829 83.824 4.108 C 84.103 4.376 84.464 4.619 84.909 4.836 C 85.353 5.043 85.823 5.265 86.319 5.503 C 86.846 5.751 87.347 6.04 87.823 6.371 C 88.298 6.691 88.685 7.078 88.985 7.533 C 89.285 7.977 89.435 8.515 89.435 9.145 C 89.435 9.796 89.274 10.37 88.954 10.866 C 88.644 11.362 88.195 11.749 87.606 12.028 C 87.027 12.307 86.329 12.447 85.513 12.447 C 84.872 12.447 84.314 12.374 83.839 12.23 C 83.364 12.085 82.961 11.914 82.63 11.718 C 82.31 11.511 82.057 11.315 81.871 11.129 C 81.685 10.943 81.561 10.809 81.499 10.726 L 82.537 9.037 L 82.584 9.037 C 82.718 9.378 82.909 9.713 83.157 10.044 C 83.415 10.375 83.736 10.654 84.118 10.881 C 84.511 11.098 84.976 11.207 85.513 11.207 C 86.185 11.207 86.732 11.015 87.156 10.633 C 87.59 10.24 87.807 9.744 87.807 9.145 C 87.807 8.535 87.6 8.05 87.187 7.688 C 86.774 7.316 86.267 6.985 85.668 6.696 C 85.234 6.479 84.79 6.267 84.335 6.061 C 83.891 5.844 83.477 5.601 83.095 5.332 C 82.713 5.053 82.403 4.727 82.165 4.356 C 81.927 3.984 81.803 3.534 81.793 3.007 C 81.783 2.428 81.938 1.917 82.258 1.473 C 82.578 1.018 83.033 0.661 83.622 0.403 C 84.211 0.134 84.893 0 85.668 0 C 86.257 0 86.758 0.067 87.172 0.202 C 87.595 0.325 87.941 0.48 88.21 0.666 C 88.479 0.842 88.68 1.007 88.815 1.162 C 88.959 1.307 89.047 1.4 89.078 1.441 Z" fill="currentColor" fill-rule="nonzero"></path>
  <path d="M 79.253 0.217 L 79.625 2.046 C 79.346 1.901 79.052 1.788 78.742 1.705 C 78.442 1.612 78.096 1.55 77.703 1.519 C 77.311 1.478 76.83 1.457 76.262 1.457 L 74.092 1.457 L 74.092 5.472 L 75.409 5.472 C 75.988 5.472 76.567 5.461 77.145 5.441 C 77.724 5.41 78.292 5.327 78.85 5.193 L 78.85 6.991 C 78.292 6.856 77.724 6.779 77.145 6.758 C 76.567 6.727 75.988 6.712 75.409 6.712 L 74.092 6.712 L 74.092 10.99 L 76.386 10.99 C 77.233 10.99 77.972 10.948 78.602 10.866 C 79.243 10.773 79.77 10.618 80.183 10.401 L 79.811 12.23 L 72.263 12.23 C 72.397 11.672 72.475 11.103 72.495 10.525 C 72.526 9.946 72.542 9.367 72.542 8.789 L 72.542 3.658 C 72.542 3.079 72.526 2.501 72.495 1.922 C 72.475 1.343 72.397 0.775 72.263 0.217 L 79.253 0.217 Z" fill="currentColor" fill-rule="nonzero"></path>
  <path d="M 64.502 0.217 C 65.556 0.217 66.466 0.403 67.23 0.775 C 68.005 1.137 68.646 1.617 69.152 2.217 C 69.659 2.805 70.031 3.451 70.268 4.154 C 70.516 4.857 70.64 5.544 70.64 6.216 C 70.64 6.887 70.516 7.574 70.268 8.277 C 70.031 8.98 69.659 9.631 69.152 10.23 C 68.646 10.829 68.005 11.315 67.23 11.687 C 66.466 12.049 65.556 12.23 64.502 12.23 L 60.426 12.23 C 60.56 11.672 60.638 11.103 60.658 10.525 C 60.689 9.946 60.705 9.367 60.705 8.789 L 60.705 3.658 C 60.705 3.079 60.689 2.501 60.658 1.922 C 60.638 1.343 60.56 0.775 60.426 0.217 L 64.502 0.217 Z M 62.255 10.99 L 64.037 10.99 C 65.019 10.99 65.825 10.84 66.455 10.54 C 67.096 10.24 67.597 9.853 67.959 9.378 C 68.331 8.892 68.589 8.375 68.734 7.828 C 68.889 7.27 68.966 6.732 68.966 6.216 C 68.966 5.699 68.889 5.167 68.734 4.619 C 68.589 4.061 68.331 3.544 67.959 3.069 C 67.597 2.583 67.096 2.196 66.455 1.907 C 65.825 1.607 65.019 1.457 64.037 1.457 L 62.255 1.457 L 62.255 10.99 Z" fill="currentColor" fill-rule="nonzero"></path>
  <path d="M 58.279 10.029 L 59.488 11.238 L 58.279 12.447 L 57.07 11.238 L 58.279 10.029 Z" fill="currentColor" fill-rule="nonzero"></path>
  <path d="M 51.186 12.447 C 50.298 12.447 49.481 12.292 48.737 11.982 C 47.993 11.661 47.347 11.217 46.8 10.649 C 46.262 10.08 45.844 9.419 45.544 8.665 C 45.245 7.91 45.095 7.094 45.095 6.216 C 45.095 5.337 45.245 4.521 45.544 3.767 C 45.844 3.012 46.262 2.356 46.8 1.798 C 47.347 1.23 47.993 0.79 48.737 0.481 C 49.481 0.16 50.298 0 51.186 0 C 52.075 0 52.891 0.155 53.635 0.465 C 54.379 0.775 55.025 1.214 55.573 1.783 C 56.12 2.341 56.544 2.997 56.844 3.751 C 57.143 4.505 57.293 5.327 57.293 6.216 C 57.293 7.094 57.143 7.91 56.844 8.665 C 56.544 9.419 56.12 10.08 55.573 10.649 C 55.025 11.217 54.379 11.661 53.635 11.982 C 52.891 12.292 52.075 12.447 51.186 12.447 Z M 51.171 11.207 C 51.842 11.207 52.452 11.072 53 10.804 C 53.547 10.535 54.018 10.173 54.41 9.719 C 54.803 9.254 55.103 8.721 55.309 8.122 C 55.516 7.512 55.619 6.877 55.619 6.216 C 55.619 5.544 55.516 4.908 55.309 4.309 C 55.103 3.71 54.803 3.183 54.41 2.728 C 54.018 2.263 53.547 1.901 53 1.643 C 52.452 1.374 51.842 1.24 51.171 1.24 C 50.499 1.24 49.889 1.374 49.342 1.643 C 48.804 1.901 48.345 2.263 47.962 2.728 C 47.58 3.193 47.285 3.725 47.079 4.325 C 46.872 4.914 46.769 5.544 46.769 6.216 C 46.769 6.877 46.872 7.512 47.079 8.122 C 47.285 8.721 47.58 9.254 47.962 9.719 C 48.345 10.173 48.804 10.535 49.342 10.804 C 49.889 11.072 50.499 11.207 51.171 11.207 Z" fill="currentColor" fill-rule="nonzero"></path>
  <path d="M 37.877 0.217 C 38.931 0.217 39.84 0.403 40.605 0.775 C 41.38 1.137 42.02 1.617 42.527 2.217 C 43.033 2.805 43.405 3.451 43.643 4.154 C 43.891 4.857 44.015 5.544 44.015 6.216 C 44.015 6.887 43.891 7.574 43.643 8.277 C 43.405 8.98 43.033 9.631 42.527 10.23 C 42.02 10.829 41.38 11.315 40.605 11.687 C 39.84 12.049 38.931 12.23 37.877 12.23 L 33.8 12.23 C 33.935 11.672 34.012 11.103 34.033 10.525 C 34.064 9.946 34.079 9.367 34.079 8.789 L 34.079 3.658 C 34.079 3.079 34.064 2.501 34.033 1.922 C 34.012 1.343 33.935 0.775 33.8 0.217 L 37.877 0.217 Z M 35.629 10.99 L 37.412 10.99 C 38.393 10.99 39.199 10.84 39.83 10.54 C 40.47 10.24 40.972 9.853 41.333 9.378 C 41.705 8.892 41.964 8.375 42.108 7.828 C 42.263 7.27 42.341 6.732 42.341 6.216 C 42.341 5.699 42.263 5.167 42.108 4.619 C 41.964 4.061 41.705 3.544 41.333 3.069 C 40.972 2.583 40.47 2.196 39.83 1.907 C 39.199 1.607 38.393 1.457 37.412 1.457 L 35.629 1.457 L 35.629 10.99 Z" fill="currentColor" fill-rule="nonzero"></path>
  <path d="M 24.885 12.23 C 25.019 11.672 25.097 11.103 25.117 10.525 C 25.148 9.946 25.164 9.367 25.164 8.789 L 25.164 3.658 C 25.164 3.079 25.148 2.501 25.117 1.922 C 25.097 1.343 25.019 0.775 24.885 0.217 L 26.993 0.217 C 26.858 0.775 26.776 1.343 26.745 1.922 C 26.724 2.501 26.714 3.079 26.714 3.658 L 26.714 10.99 L 28.884 10.99 C 29.452 10.99 29.933 10.974 30.325 10.943 C 30.718 10.902 31.064 10.84 31.364 10.757 C 31.674 10.664 31.968 10.545 32.247 10.401 L 31.875 12.23 L 24.885 12.23 Z" fill="currentColor" fill-rule="nonzero"></path>
  <path d="M 16.919 0.217 L 18.5 0.217 L 22.344 9.517 C 22.551 9.972 22.763 10.411 22.98 10.835 C 23.207 11.248 23.481 11.713 23.801 12.23 L 21.616 12.23 C 21.554 11.899 21.466 11.537 21.352 11.145 C 21.239 10.742 21.048 10.199 20.779 9.517 L 20.422 8.665 L 14.997 8.665 L 14.641 9.517 C 14.383 10.199 14.191 10.742 14.067 11.145 C 13.954 11.537 13.866 11.899 13.804 12.23 L 11.618 12.23 C 11.939 11.744 12.202 11.305 12.409 10.912 C 12.626 10.509 12.827 10.096 13.013 9.672 L 16.919 0.217 Z M 15.509 7.425 L 19.911 7.425 L 17.71 2.092 L 15.509 7.425 Z" fill="currentColor" fill-rule="nonzero"></path>
  <path d="M 2.186 0.217 L 8.634 10.215 L 8.634 3.643 C 8.634 3.064 8.618 2.485 8.587 1.907 C 8.566 1.328 8.489 0.76 8.355 0.202 L 10.385 0.202 C 10.251 0.76 10.168 1.328 10.137 1.907 C 10.116 2.485 10.106 3.064 10.106 3.643 L 10.106 8.773 C 10.106 9.352 10.116 9.936 10.137 10.525 C 10.168 11.103 10.251 11.672 10.385 12.23 L 8.153 12.23 L 1.752 2.31 L 1.752 8.789 C 1.752 9.367 1.762 9.946 1.783 10.525 C 1.814 11.103 1.896 11.672 2.03 12.23 L 0 12.23 C 0.134 11.672 0.212 11.103 0.232 10.525 C 0.264 9.946 0.279 9.367 0.279 8.789 L 0.279 3.658 C 0.279 3.079 0.264 2.501 0.232 1.922 C 0.212 1.343 0.134 0.775 0 0.217 L 2.186 0.217 Z" fill="currentColor" fill-rule="nonzero"></path>
  <path d="M 100.574 16.927 L 100.29 17.484 L 100.275 17.484 C 100.251 17.388 100.203 17.291 100.13 17.195 C 100.061 17.099 99.969 17.019 99.852 16.957 C 99.738 16.892 99.597 16.859 99.428 16.859 C 99.212 16.859 99.033 16.914 98.892 17.025 C 98.754 17.135 98.685 17.281 98.685 17.463 C 98.685 17.604 98.732 17.721 98.824 17.814 C 98.917 17.904 99.038 17.985 99.186 18.057 C 99.334 18.126 99.49 18.2 99.655 18.279 C 99.831 18.361 99.998 18.458 100.156 18.568 C 100.314 18.674 100.443 18.804 100.543 18.955 C 100.643 19.103 100.693 19.282 100.693 19.492 C 100.693 19.708 100.64 19.899 100.533 20.065 C 100.43 20.23 100.28 20.359 100.084 20.452 C 99.891 20.545 99.659 20.591 99.387 20.591 C 99.174 20.591 98.988 20.567 98.83 20.519 C 98.671 20.471 98.537 20.414 98.427 20.348 C 98.32 20.28 98.236 20.214 98.174 20.152 C 98.112 20.09 98.071 20.046 98.05 20.018 L 98.396 19.456 L 98.412 19.456 C 98.456 19.569 98.52 19.681 98.603 19.791 C 98.689 19.901 98.795 19.994 98.923 20.07 C 99.053 20.142 99.208 20.178 99.387 20.178 C 99.611 20.178 99.793 20.114 99.934 19.987 C 100.079 19.856 100.151 19.691 100.151 19.492 C 100.151 19.289 100.082 19.127 99.944 19.007 C 99.807 18.883 99.638 18.773 99.439 18.676 C 99.294 18.604 99.146 18.533 98.995 18.465 C 98.847 18.392 98.709 18.311 98.582 18.222 C 98.455 18.129 98.351 18.021 98.272 17.897 C 98.193 17.773 98.152 17.623 98.148 17.448 C 98.145 17.255 98.196 17.085 98.303 16.937 C 98.41 16.785 98.561 16.667 98.757 16.581 C 98.953 16.491 99.181 16.447 99.439 16.447 C 99.635 16.447 99.802 16.469 99.939 16.514 C 100.08 16.555 100.196 16.607 100.285 16.668 C 100.375 16.727 100.442 16.782 100.486 16.834 C 100.535 16.882 100.564 16.913 100.574 16.927 Z" fill="currentColor" fill-rule="nonzero"></path>
  <path d="M 97.641 16.519 L 97.765 17.128 C 97.672 17.08 97.574 17.042 97.47 17.014 C 97.371 16.983 97.255 16.963 97.125 16.952 C 96.994 16.939 96.834 16.932 96.645 16.932 L 96.335 16.932 L 96.335 19.373 C 96.335 19.566 96.338 19.758 96.345 19.951 C 96.356 20.144 96.383 20.333 96.428 20.519 L 95.726 20.519 C 95.771 20.333 95.796 20.144 95.803 19.951 C 95.814 19.758 95.819 19.566 95.819 19.373 L 95.819 16.932 L 95.509 16.932 C 95.323 16.932 95.163 16.939 95.029 16.952 C 94.898 16.963 94.781 16.983 94.678 17.014 C 94.578 17.042 94.482 17.08 94.389 17.128 L 94.513 16.519 L 97.641 16.519 Z" fill="currentColor" fill-rule="nonzero"></path>
  <path d="M 91.197 16.519 L 93.344 19.848 L 93.344 17.659 C 93.344 17.467 93.338 17.274 93.328 17.081 C 93.321 16.889 93.295 16.699 93.251 16.514 L 93.927 16.514 C 93.882 16.699 93.855 16.889 93.844 17.081 C 93.837 17.274 93.834 17.467 93.834 17.659 L 93.834 19.368 C 93.834 19.56 93.837 19.755 93.844 19.951 C 93.855 20.144 93.882 20.333 93.927 20.519 L 93.184 20.519 L 91.052 17.216 L 91.052 19.373 C 91.052 19.566 91.055 19.758 91.062 19.951 C 91.073 20.144 91.1 20.333 91.145 20.519 L 90.469 20.519 C 90.514 20.333 90.539 20.144 90.546 19.951 C 90.557 19.758 90.562 19.566 90.562 19.373 L 90.562 17.665 C 90.562 17.472 90.557 17.279 90.546 17.087 C 90.539 16.894 90.514 16.705 90.469 16.519 L 91.197 16.519 Z" fill="currentColor" fill-rule="nonzero"></path>
  <path d="M 89.541 16.519 L 89.664 17.128 C 89.571 17.08 89.473 17.042 89.37 17.014 C 89.27 16.983 89.155 16.963 89.024 16.952 C 88.894 16.939 88.734 16.932 88.544 16.932 L 87.822 16.932 L 87.822 18.268 L 88.261 18.268 C 88.453 18.268 88.646 18.265 88.839 18.258 C 89.031 18.248 89.221 18.22 89.406 18.176 L 89.406 18.774 C 89.221 18.73 89.031 18.704 88.839 18.697 C 88.646 18.687 88.453 18.681 88.261 18.681 L 87.822 18.681 L 87.822 20.106 L 88.586 20.106 C 88.868 20.106 89.114 20.092 89.324 20.065 C 89.537 20.034 89.713 19.982 89.85 19.91 L 89.726 20.519 L 87.213 20.519 C 87.257 20.333 87.283 20.144 87.29 19.951 C 87.301 19.758 87.306 19.566 87.306 19.373 L 87.306 17.665 C 87.306 17.472 87.301 17.279 87.29 17.087 C 87.283 16.894 87.257 16.705 87.213 16.519 L 89.541 16.519 Z" fill="currentColor" fill-rule="nonzero"></path>
  <path d="M 83.177 16.519 L 84.503 19.626 L 85.845 16.519 L 86.49 16.519 C 86.445 16.705 86.418 16.894 86.408 17.087 C 86.401 17.279 86.397 17.472 86.397 17.665 L 86.397 19.373 C 86.397 19.566 86.401 19.758 86.408 19.951 C 86.418 20.144 86.445 20.333 86.49 20.519 L 85.788 20.519 C 85.833 20.333 85.859 20.144 85.866 19.951 C 85.876 19.758 85.881 19.566 85.881 19.373 L 85.881 17.515 L 84.596 20.519 L 84.348 20.519 L 83.063 17.515 L 83.063 19.373 C 83.063 19.566 83.067 19.758 83.073 19.951 C 83.084 20.144 83.111 20.333 83.156 20.519 L 82.48 20.519 C 82.525 20.333 82.55 20.144 82.557 19.951 C 82.568 19.758 82.573 19.566 82.573 19.373 L 82.573 17.665 C 82.573 17.472 82.568 17.279 82.557 17.087 C 82.55 16.894 82.525 16.705 82.48 16.519 L 83.177 16.519 Z" fill="currentColor" fill-rule="nonzero"></path>
  <path d="M 79.902 20.591 C 79.606 20.591 79.334 20.539 79.087 20.436 C 78.839 20.33 78.624 20.182 78.442 19.992 C 78.263 19.803 78.123 19.583 78.024 19.332 C 77.924 19.08 77.874 18.809 77.874 18.516 C 77.874 18.224 77.924 17.952 78.024 17.701 C 78.123 17.45 78.263 17.231 78.442 17.045 C 78.624 16.856 78.839 16.71 79.087 16.607 C 79.334 16.5 79.606 16.447 79.902 16.447 C 80.198 16.447 80.47 16.498 80.718 16.601 C 80.965 16.705 81.181 16.851 81.363 17.04 C 81.545 17.226 81.686 17.444 81.786 17.696 C 81.886 17.947 81.936 18.22 81.936 18.516 C 81.936 18.809 81.886 19.08 81.786 19.332 C 81.686 19.583 81.545 19.803 81.363 19.992 C 81.181 20.182 80.965 20.33 80.718 20.436 C 80.47 20.539 80.198 20.591 79.902 20.591 Z M 79.897 20.178 C 80.121 20.178 80.324 20.133 80.506 20.044 C 80.688 19.954 80.845 19.834 80.976 19.683 C 81.107 19.528 81.206 19.351 81.275 19.151 C 81.344 18.948 81.378 18.736 81.378 18.516 C 81.378 18.293 81.344 18.081 81.275 17.881 C 81.206 17.682 81.107 17.506 80.976 17.355 C 80.845 17.2 80.688 17.08 80.506 16.994 C 80.324 16.904 80.121 16.859 79.897 16.859 C 79.673 16.859 79.47 16.904 79.288 16.994 C 79.109 17.08 78.956 17.2 78.829 17.355 C 78.701 17.51 78.603 17.687 78.535 17.887 C 78.466 18.083 78.431 18.293 78.431 18.516 C 78.431 18.736 78.466 18.948 78.535 19.151 C 78.603 19.351 78.701 19.528 78.829 19.683 C 78.956 19.834 79.109 19.954 79.288 20.044 C 79.47 20.133 79.673 20.178 79.897 20.178 Z" fill="currentColor" fill-rule="nonzero"></path>
  <path d="M 74.018 16.519 L 75.345 19.626 L 76.687 16.519 L 77.332 16.519 C 77.287 16.705 77.26 16.894 77.249 17.087 C 77.242 17.279 77.239 17.472 77.239 17.665 L 77.239 19.373 C 77.239 19.566 77.242 19.758 77.249 19.951 C 77.26 20.144 77.287 20.333 77.332 20.519 L 76.63 20.519 C 76.675 20.333 76.701 20.144 76.707 19.951 C 76.718 19.758 76.723 19.566 76.723 19.373 L 76.723 17.515 L 75.438 20.519 L 75.19 20.519 L 73.905 17.515 L 73.905 19.373 C 73.905 19.566 73.908 19.758 73.915 19.951 C 73.925 20.144 73.953 20.333 73.998 20.519 L 73.322 20.519 C 73.366 20.333 73.392 20.144 73.399 19.951 C 73.409 19.758 73.415 19.566 73.415 19.373 L 73.415 17.665 C 73.415 17.472 73.409 17.279 73.399 17.087 C 73.392 16.894 73.366 16.705 73.322 16.519 L 74.018 16.519 Z" fill="currentColor" fill-rule="nonzero"></path>
  <path d="M 71.421 16.927 L 71.137 17.484 L 71.122 17.484 C 71.097 17.388 71.049 17.291 70.977 17.195 C 70.908 17.099 70.815 17.019 70.698 16.957 C 70.585 16.892 70.444 16.859 70.275 16.859 C 70.058 16.859 69.879 16.914 69.738 17.025 C 69.601 17.135 69.532 17.281 69.532 17.463 C 69.532 17.604 69.578 17.721 69.671 17.814 C 69.764 17.904 69.885 17.985 70.033 18.057 C 70.18 18.126 70.337 18.2 70.502 18.279 C 70.678 18.361 70.845 18.458 71.003 18.568 C 71.161 18.674 71.29 18.804 71.39 18.955 C 71.49 19.103 71.54 19.282 71.54 19.492 C 71.54 19.708 71.486 19.899 71.38 20.065 C 71.276 20.23 71.127 20.359 70.931 20.452 C 70.738 20.545 70.506 20.591 70.234 20.591 C 70.02 20.591 69.835 20.567 69.676 20.519 C 69.518 20.471 69.384 20.414 69.274 20.348 C 69.167 20.28 69.083 20.214 69.021 20.152 C 68.959 20.09 68.918 20.046 68.897 20.018 L 69.243 19.456 L 69.258 19.456 C 69.303 19.569 69.367 19.681 69.449 19.791 C 69.535 19.901 69.642 19.994 69.769 20.07 C 69.9 20.142 70.055 20.178 70.234 20.178 C 70.457 20.178 70.64 20.114 70.781 19.987 C 70.925 19.856 70.998 19.691 70.998 19.492 C 70.998 19.289 70.929 19.127 70.791 19.007 C 70.654 18.883 70.485 18.773 70.285 18.676 C 70.141 18.604 69.993 18.533 69.842 18.465 C 69.694 18.392 69.556 18.311 69.429 18.222 C 69.301 18.129 69.198 18.021 69.119 17.897 C 69.04 17.773 68.999 17.623 68.995 17.448 C 68.992 17.255 69.043 17.085 69.15 16.937 C 69.257 16.785 69.408 16.667 69.604 16.581 C 69.8 16.491 70.027 16.447 70.285 16.447 C 70.482 16.447 70.648 16.469 70.786 16.514 C 70.927 16.555 71.042 16.607 71.132 16.668 C 71.221 16.727 71.288 16.782 71.333 16.834 C 71.381 16.882 71.411 16.913 71.421 16.927 Z" fill="currentColor" fill-rule="nonzero"></path>
  <path d="M 68.417 16.927 L 68.133 17.484 L 68.118 17.484 C 68.093 17.388 68.045 17.291 67.973 17.195 C 67.904 17.099 67.811 17.019 67.694 16.957 C 67.581 16.892 67.44 16.859 67.271 16.859 C 67.054 16.859 66.875 16.914 66.734 17.025 C 66.597 17.135 66.528 17.281 66.528 17.463 C 66.528 17.604 66.574 17.721 66.667 17.814 C 66.76 17.904 66.881 17.985 67.028 18.057 C 67.176 18.126 67.333 18.2 67.498 18.279 C 67.674 18.361 67.841 18.458 67.999 18.568 C 68.157 18.674 68.286 18.804 68.386 18.955 C 68.486 19.103 68.536 19.282 68.536 19.492 C 68.536 19.708 68.482 19.899 68.376 20.065 C 68.272 20.23 68.123 20.359 67.927 20.452 C 67.734 20.545 67.502 20.591 67.23 20.591 C 67.016 20.591 66.831 20.567 66.672 20.519 C 66.514 20.471 66.38 20.414 66.27 20.348 C 66.163 20.28 66.079 20.214 66.017 20.152 C 65.955 20.09 65.914 20.046 65.893 20.018 L 66.239 19.456 L 66.254 19.456 C 66.299 19.569 66.363 19.681 66.445 19.791 C 66.531 19.901 66.638 19.994 66.765 20.07 C 66.896 20.142 67.051 20.178 67.23 20.178 C 67.453 20.178 67.636 20.114 67.777 19.987 C 67.921 19.856 67.994 19.691 67.994 19.492 C 67.994 19.289 67.925 19.127 67.787 19.007 C 67.65 18.883 67.481 18.773 67.281 18.676 C 67.137 18.604 66.989 18.533 66.838 18.465 C 66.69 18.392 66.552 18.311 66.425 18.222 C 66.297 18.129 66.194 18.021 66.115 17.897 C 66.036 17.773 65.995 17.623 65.991 17.448 C 65.988 17.255 66.039 17.085 66.146 16.937 C 66.253 16.785 66.404 16.667 66.6 16.581 C 66.796 16.491 67.023 16.447 67.281 16.447 C 67.478 16.447 67.644 16.469 67.782 16.514 C 67.923 16.555 68.038 16.607 68.128 16.668 C 68.217 16.727 68.284 16.782 68.329 16.834 C 68.377 16.882 68.407 16.913 68.417 16.927 Z" fill="currentColor" fill-rule="nonzero"></path>
  <path d="M 65.145 16.519 L 65.269 17.128 C 65.176 17.08 65.078 17.042 64.975 17.014 C 64.875 16.983 64.76 16.963 64.629 16.952 C 64.498 16.939 64.338 16.932 64.149 16.932 L 63.427 16.932 L 63.427 18.268 L 63.865 18.268 C 64.058 18.268 64.251 18.265 64.443 18.258 C 64.636 18.248 64.825 18.22 65.011 18.176 L 65.011 18.774 C 64.825 18.73 64.636 18.704 64.443 18.697 C 64.251 18.687 64.058 18.681 63.865 18.681 L 63.427 18.681 L 63.427 20.106 L 64.191 20.106 C 64.473 20.106 64.719 20.092 64.929 20.065 C 65.142 20.034 65.317 19.982 65.455 19.91 L 65.331 20.519 L 62.818 20.519 C 62.862 20.333 62.888 20.144 62.895 19.951 C 62.905 19.758 62.911 19.566 62.911 19.373 L 62.911 17.665 C 62.911 17.472 62.905 17.279 62.895 17.087 C 62.888 16.894 62.862 16.705 62.818 16.519 L 65.145 16.519 Z" fill="currentColor" fill-rule="nonzero"></path>
  <path d="M 59.849 20.519 C 59.894 20.333 59.919 20.144 59.926 19.951 C 59.937 19.758 59.942 19.566 59.942 19.373 L 59.942 17.665 C 59.942 17.472 59.937 17.279 59.926 17.087 C 59.919 16.894 59.894 16.705 59.849 16.519 L 60.551 16.519 C 60.506 16.705 60.479 16.894 60.468 17.087 C 60.461 17.279 60.458 17.472 60.458 17.665 L 60.458 20.106 L 61.18 20.106 C 61.37 20.106 61.53 20.101 61.66 20.09 C 61.791 20.077 61.906 20.056 62.006 20.028 C 62.109 19.997 62.208 19.958 62.3 19.91 L 62.177 20.519 L 59.849 20.519 Z" fill="currentColor" fill-rule="nonzero"></path>
  <path d="M 58.921 16.519 L 59.044 17.128 C 58.952 17.08 58.853 17.042 58.75 17.014 C 58.65 16.983 58.535 16.963 58.404 16.952 C 58.274 16.939 58.114 16.932 57.924 16.932 L 57.202 16.932 L 57.202 18.268 L 57.641 18.268 C 57.833 18.268 58.026 18.265 58.219 18.258 C 58.411 18.248 58.601 18.22 58.786 18.176 L 58.786 18.774 C 58.601 18.73 58.411 18.704 58.219 18.697 C 58.026 18.687 57.833 18.681 57.641 18.681 L 57.202 18.681 L 57.202 20.106 L 57.966 20.106 C 58.248 20.106 58.494 20.092 58.704 20.065 C 58.917 20.034 59.093 19.982 59.23 19.91 L 59.106 20.519 L 56.593 20.519 C 56.638 20.333 56.663 20.144 56.67 19.951 C 56.681 19.758 56.686 19.566 56.686 19.373 L 56.686 17.665 C 56.686 17.472 56.681 17.279 56.67 17.087 C 56.663 16.894 56.638 16.705 56.593 16.519 L 58.921 16.519 Z" fill="currentColor" fill-rule="nonzero"></path>
  <path d="M 52.557 16.519 L 53.883 19.626 L 55.225 16.519 L 55.87 16.519 C 55.826 16.705 55.798 16.894 55.788 17.087 C 55.781 17.279 55.777 17.472 55.777 17.665 L 55.777 19.373 C 55.777 19.566 55.781 19.758 55.788 19.951 C 55.798 20.144 55.826 20.333 55.87 20.519 L 55.168 20.519 C 55.213 20.333 55.239 20.144 55.246 19.951 C 55.256 19.758 55.261 19.566 55.261 19.373 L 55.261 17.515 L 53.976 20.519 L 53.728 20.519 L 52.443 17.515 L 52.443 19.373 C 52.443 19.566 52.447 19.758 52.453 19.951 C 52.464 20.144 52.491 20.333 52.536 20.519 L 51.86 20.519 C 51.905 20.333 51.93 20.144 51.937 19.951 C 51.948 19.758 51.953 19.566 51.953 19.373 L 51.953 17.665 C 51.953 17.472 51.948 17.279 51.937 17.087 C 51.93 16.894 51.905 16.705 51.86 16.519 L 52.557 16.519 Z" fill="currentColor" fill-rule="nonzero"></path>
  <path d="M 51.086 16.519 C 51.042 16.705 51.014 16.894 51.004 17.087 C 50.997 17.279 50.993 17.472 50.993 17.665 L 50.993 19.373 C 50.993 19.566 50.997 19.758 51.004 19.951 C 51.014 20.144 51.042 20.333 51.086 20.519 L 50.384 20.519 C 50.429 20.333 50.455 20.144 50.462 19.951 C 50.472 19.758 50.477 19.566 50.477 19.373 L 50.477 17.665 C 50.477 17.472 50.472 17.279 50.462 17.087 C 50.455 16.894 50.429 16.705 50.384 16.519 L 51.086 16.519 Z" fill="currentColor" fill-rule="nonzero"></path>
  <path d="M 49.743 16.519 L 49.866 17.128 C 49.774 17.08 49.676 17.042 49.572 17.014 C 49.472 16.983 49.357 16.963 49.226 16.952 C 49.096 16.939 48.936 16.932 48.746 16.932 L 48.437 16.932 L 48.437 19.373 C 48.437 19.566 48.44 19.758 48.447 19.951 C 48.457 20.144 48.485 20.333 48.53 20.519 L 47.828 20.519 C 47.872 20.333 47.898 20.144 47.905 19.951 C 47.916 19.758 47.921 19.566 47.921 19.373 L 47.921 16.932 L 47.611 16.932 C 47.425 16.932 47.265 16.939 47.131 16.952 C 47 16.963 46.883 16.983 46.78 17.014 C 46.68 17.042 46.584 17.08 46.491 17.128 L 46.615 16.519 L 49.743 16.519 Z" fill="currentColor" fill-rule="nonzero"></path>
  <path d="M 44.787 20.157 C 44.55 20.312 44.309 20.424 44.065 20.493 C 43.82 20.558 43.564 20.591 43.296 20.591 C 42.989 20.591 42.709 20.539 42.454 20.436 C 42.2 20.33 41.979 20.182 41.794 19.992 C 41.611 19.803 41.468 19.583 41.365 19.332 C 41.265 19.08 41.216 18.809 41.216 18.516 C 41.216 18.224 41.264 17.952 41.36 17.701 C 41.46 17.45 41.599 17.231 41.778 17.045 C 41.961 16.856 42.174 16.71 42.418 16.607 C 42.666 16.5 42.939 16.447 43.239 16.447 C 43.579 16.447 43.856 16.479 44.07 16.545 C 44.283 16.61 44.474 16.708 44.643 16.839 L 44.725 17.587 L 44.71 17.587 C 44.572 17.377 44.386 17.204 44.152 17.066 C 43.922 16.928 43.617 16.859 43.239 16.859 C 42.943 16.859 42.685 16.935 42.465 17.087 C 42.244 17.238 42.074 17.439 41.954 17.69 C 41.833 17.938 41.773 18.213 41.773 18.516 C 41.773 18.743 41.811 18.957 41.887 19.156 C 41.962 19.356 42.071 19.533 42.212 19.688 C 42.353 19.839 42.52 19.96 42.712 20.049 C 42.905 20.135 43.118 20.178 43.352 20.178 C 43.535 20.178 43.707 20.156 43.868 20.111 C 44.03 20.066 44.164 20.01 44.271 19.941 L 44.271 18.81 C 44.116 18.814 43.963 18.821 43.812 18.831 C 43.66 18.841 43.509 18.865 43.358 18.903 L 43.358 18.392 L 44.787 18.392 L 44.787 20.157 Z" fill="currentColor" fill-rule="nonzero"></path>
  <path d="M 37.946 16.519 L 40.093 19.848 L 40.093 17.659 C 40.093 17.467 40.087 17.274 40.077 17.081 C 40.07 16.889 40.044 16.699 40 16.514 L 40.676 16.514 C 40.631 16.699 40.604 16.889 40.593 17.081 C 40.586 17.274 40.583 17.467 40.583 17.659 L 40.583 19.368 C 40.583 19.56 40.586 19.755 40.593 19.951 C 40.604 20.144 40.631 20.333 40.676 20.519 L 39.933 20.519 L 37.801 17.216 L 37.801 19.373 C 37.801 19.566 37.804 19.758 37.811 19.951 C 37.822 20.144 37.849 20.333 37.894 20.519 L 37.218 20.519 C 37.263 20.333 37.288 20.144 37.295 19.951 C 37.306 19.758 37.311 19.566 37.311 19.373 L 37.311 17.665 C 37.311 17.472 37.306 17.279 37.295 17.087 C 37.288 16.894 37.263 16.705 37.218 16.519 L 37.946 16.519 Z" fill="currentColor" fill-rule="nonzero"></path>
  <path d="M 36.444 16.519 C 36.399 16.705 36.372 16.894 36.362 17.087 C 36.355 17.279 36.351 17.472 36.351 17.665 L 36.351 19.373 C 36.351 19.566 36.355 19.758 36.362 19.951 C 36.372 20.144 36.399 20.333 36.444 20.519 L 35.742 20.519 C 35.787 20.333 35.813 20.144 35.82 19.951 C 35.83 19.758 35.835 19.566 35.835 19.373 L 35.835 17.665 C 35.835 17.472 35.83 17.279 35.82 17.087 C 35.813 16.894 35.787 16.705 35.742 16.519 L 36.444 16.519 Z" fill="currentColor" fill-rule="nonzero"></path>
  <path d="M 35.1 16.519 L 35.224 17.128 C 35.131 17.08 35.033 17.042 34.93 17.014 C 34.83 16.983 34.715 16.963 34.584 16.952 C 34.454 16.939 34.294 16.932 34.104 16.932 L 33.795 16.932 L 33.795 19.373 C 33.795 19.566 33.798 19.758 33.805 19.951 C 33.815 20.144 33.843 20.333 33.888 20.519 L 33.186 20.519 C 33.23 20.333 33.256 20.144 33.263 19.951 C 33.273 19.758 33.279 19.566 33.279 19.373 L 33.279 16.932 L 32.969 16.932 C 32.783 16.932 32.623 16.939 32.489 16.952 C 32.358 16.963 32.241 16.983 32.138 17.014 C 32.038 17.042 31.942 17.08 31.849 17.128 L 31.973 16.519 L 35.1 16.519 Z" fill="currentColor" fill-rule="nonzero"></path>
  <path d="M 31.416 16.519 L 31.539 17.128 C 31.446 17.08 31.348 17.042 31.245 17.014 C 31.145 16.983 31.03 16.963 30.899 16.952 C 30.769 16.939 30.609 16.932 30.419 16.932 L 29.697 16.932 L 29.697 18.32 L 30.135 18.32 C 30.328 18.32 30.521 18.317 30.714 18.31 C 30.906 18.299 31.096 18.272 31.281 18.227 L 31.281 18.826 C 31.096 18.781 30.906 18.755 30.714 18.748 C 30.521 18.738 30.328 18.733 30.135 18.733 L 29.697 18.733 L 29.697 19.373 C 29.697 19.566 29.7 19.758 29.707 19.951 C 29.717 20.144 29.745 20.333 29.79 20.519 L 29.088 20.519 C 29.132 20.333 29.158 20.144 29.165 19.951 C 29.175 19.758 29.181 19.566 29.181 19.373 L 29.181 17.665 C 29.181 17.472 29.175 17.279 29.165 17.087 C 29.158 16.894 29.132 16.705 29.088 16.519 L 31.416 16.519 Z" fill="currentColor" fill-rule="nonzero"></path>
  <path d="M 26.435 16.519 L 26.962 16.519 L 28.242 19.616 C 28.311 19.767 28.381 19.913 28.453 20.054 C 28.529 20.192 28.62 20.347 28.727 20.519 L 27.999 20.519 C 27.979 20.409 27.949 20.288 27.912 20.157 C 27.874 20.023 27.81 19.843 27.721 19.616 L 27.602 19.332 L 25.795 19.332 L 25.677 19.616 C 25.591 19.843 25.527 20.023 25.486 20.157 C 25.448 20.288 25.419 20.409 25.398 20.519 L 24.67 20.519 C 24.777 20.357 24.865 20.211 24.933 20.08 C 25.006 19.946 25.073 19.808 25.135 19.667 L 26.435 16.519 Z M 25.966 18.919 L 27.432 18.919 L 26.699 17.143 L 25.966 18.919 Z" fill="currentColor" fill-rule="nonzero"></path>
  <path d="M 22.823 16.519 C 23.085 16.519 23.324 16.567 23.54 16.663 C 23.761 16.756 23.936 16.89 24.067 17.066 C 24.201 17.238 24.268 17.443 24.268 17.68 C 24.268 17.869 24.225 18.04 24.139 18.191 C 24.053 18.342 23.934 18.471 23.783 18.578 C 23.635 18.681 23.467 18.757 23.277 18.805 L 24.02 19.884 C 24.103 19.991 24.189 20.097 24.279 20.204 C 24.371 20.311 24.468 20.416 24.568 20.519 L 23.768 20.519 C 23.723 20.419 23.664 20.311 23.592 20.194 C 23.523 20.073 23.429 19.922 23.308 19.739 L 22.679 18.862 L 22.338 18.862 L 22.338 19.373 C 22.338 19.566 22.341 19.758 22.348 19.951 C 22.359 20.144 22.386 20.333 22.431 20.519 L 21.729 20.519 C 21.774 20.333 21.799 20.144 21.806 19.951 C 21.817 19.758 21.822 19.566 21.822 19.373 L 21.822 17.665 C 21.822 17.472 21.817 17.279 21.806 17.087 C 21.799 16.894 21.774 16.705 21.729 16.519 L 22.823 16.519 Z M 22.338 18.449 L 22.668 18.449 C 23.005 18.449 23.264 18.384 23.442 18.253 C 23.621 18.122 23.711 17.931 23.711 17.68 C 23.711 17.425 23.621 17.238 23.442 17.117 C 23.264 16.994 23.005 16.932 22.668 16.932 L 22.338 16.932 L 22.338 18.449 Z" fill="currentColor" fill-rule="nonzero"></path>
  <path d="M 21.14 19.445 L 21.161 19.445 L 21.078 20.199 C 20.91 20.33 20.722 20.428 20.516 20.493 C 20.309 20.558 20.043 20.591 19.716 20.591 C 19.423 20.591 19.153 20.539 18.905 20.436 C 18.658 20.33 18.443 20.182 18.26 19.992 C 18.081 19.803 17.942 19.583 17.842 19.332 C 17.742 19.08 17.692 18.809 17.692 18.516 C 17.692 18.224 17.742 17.952 17.842 17.701 C 17.942 17.45 18.083 17.231 18.265 17.045 C 18.448 16.856 18.661 16.71 18.905 16.607 C 19.153 16.5 19.423 16.447 19.716 16.447 C 20.032 16.447 20.294 16.479 20.5 16.545 C 20.71 16.61 20.899 16.708 21.068 16.839 L 21.15 17.587 L 21.13 17.587 C 20.992 17.377 20.81 17.204 20.583 17.066 C 20.356 16.928 20.067 16.859 19.716 16.859 C 19.499 16.859 19.299 16.902 19.117 16.988 C 18.938 17.074 18.783 17.195 18.652 17.35 C 18.525 17.501 18.425 17.677 18.353 17.876 C 18.284 18.076 18.25 18.289 18.25 18.516 C 18.25 18.743 18.284 18.957 18.353 19.156 C 18.425 19.356 18.525 19.533 18.652 19.688 C 18.783 19.839 18.938 19.96 19.117 20.049 C 19.299 20.135 19.499 20.178 19.716 20.178 C 20.084 20.178 20.378 20.109 20.598 19.972 C 20.822 19.831 21.003 19.655 21.14 19.445 Z" fill="currentColor" fill-rule="nonzero"></path>
  <path d="M 124.14 0.296 L 124.272 0.913 C 124.14 0.847 123.985 0.781 123.831 0.759 C 123.677 0.737 123.434 0.715 123.147 0.715 L 123.147 2.148 C 123.147 2.347 123.147 2.546 123.147 2.722 C 123.147 2.921 123.191 3.097 123.235 3.296 L 122.529 3.296 C 122.574 3.119 122.596 2.921 122.618 2.722 C 122.64 2.523 122.618 2.347 122.618 2.148 L 122.618 0.715 C 122.331 0.715 122.11 0.715 121.956 0.759 C 121.802 0.781 121.647 0.847 121.493 0.913 L 121.625 0.296 L 124.184 0.296 L 124.14 0.296 Z M 125.088 0.296 L 126.081 2.479 L 127.074 0.296 L 127.757 0.296 C 127.713 0.472 127.691 0.671 127.669 0.869 C 127.669 1.068 127.669 1.266 127.669 1.443 L 127.669 2.126 C 127.669 2.325 127.669 2.523 127.669 2.7 C 127.669 2.898 127.713 3.075 127.757 3.273 L 127.052 3.273 C 127.096 3.097 127.118 2.898 127.14 2.7 C 127.14 2.501 127.14 2.325 127.14 2.126 L 127.14 1.332 L 127.14 1.376 L 126.257 3.273 L 125.927 3.273 L 125.066 1.376 L 125.066 2.126 C 125.066 2.325 125.066 2.523 125.066 2.7 C 125.066 2.876 125.088 3.075 125.154 3.273 L 124.449 3.273 C 124.493 3.097 124.515 2.898 124.537 2.7 C 124.537 2.501 124.537 2.325 124.537 2.126 L 124.537 1.443 C 124.537 1.244 124.537 1.046 124.537 0.869 C 124.537 0.671 124.493 0.494 124.449 0.296 L 125.132 0.296 L 125.088 0.296 Z" fill="currentColor" fill-rule="nonzero"></path>
</svg>